<svg version="1.2" xmlns="http://www.w3.org/2000/svg" viewBox="0 0 32 32" width="32" height="32"><style>.a{fill:#0699bc}</style><path fill-rule="evenodd" class="a" d="m32 16.9c-0.3 4.3-2.2 8.2-5.4 11-3.2 2.9-7.3 4.3-11.5 4.1-4.3-0.3-8.2-2.2-11-5.4-2.9-3.2-4.3-7.3-4.1-11.5 0.3-4.3 2.2-8.2 5.4-11 3.2-2.9 7.3-4.3 11.5-4.1 4.3 0.3 8.2 2.2 11 5.4 2.9 3.2 4.3 7.3 4.1 11.5zm-7 9.2c2.7-2.4 4.4-5.7 4.6-9.3 0.2-3.6-1-7.1-3.5-9.8-2.4-2.7-5.7-4.4-9.3-4.6-3.6-0.2-7.1 1-9.8 3.5-2.7 2.4-4.4 5.7-4.6 9.3-0.2 3.6 1 7.1 3.5 9.8 2.4 2.7 5.7 4.4 9.3 4.6 3.6 0.2 7.1-1 9.8-3.5zm-15.2-10.3c0.6-0.5 1.4-0.3 1.9 0.2l2.5 3.4 7.4-10.1c0.5-0.6 1.3-0.8 1.9-0.3 0.6 0.4 0.7 1.2 0.3 1.8l-8.4 11.5q-0.2 0.2-0.4 0.4c-0.6 0.4-1.4 0.3-1.9-0.3l-3.6-4.7c-0.4-0.6-0.3-1.5 0.3-1.9z"/></svg>