<svg version="1.2" xmlns="http://www.w3.org/2000/svg" viewBox="0 0 32 32" width="32" height="32"><style>.a{fill:#0699bc}</style><path fill-rule="evenodd" class="a" d="m24.6 30.4c0.8 0 1.4-0.6 1.4-1.3v-3.3c0-1.1 1.8-1.1 1.8 0v3.3c0 1.6-1.4 2.9-3.2 2.9q-10.2 0-20.4 0c-1.8 0-3.2-1.3-3.2-2.9v-12.2c0-1.6 1.4-3 3.2-3q9.5 0 19 0c1.2 0 1.2 1.7 0 1.7h-4.9v1.3c0 1.6-1.4 2.9-3.2 2.9h-1.4c-1.8 0-3.2-1.3-3.2-2.9v-1.3h-6.3c-0.8 0-1.4 0.6-1.4 1.3v12.2c0 0.7 0.6 1.3 1.4 1.3q10.2 0 20.4 0zm-4.6-9.9c-1.2 0-1.2-1.6-0.1-1.6 1.9-0.1 3.6-0.9 4.9-2.1 2.6-2.6 2.4-6.6-0.4-9-1.9-1.7-4.7-2.2-7.2-1.3l2.3 2.8c0.4 0.6 0 1.4-0.8 1.3l-9.6 0.1c-0.5 0-0.9-0.5-0.9-1l1.6-9c0.1-0.7 1.1-0.9 1.5-0.3l2 2.1q1.3-0.7 2.7-1.1c4.2-1.3 8.8-0.3 12.1 2.6 5 4.3 5.2 11.7 0.6 16.4-2.1 2.1-5.2 3.5-8.6 3.7-1.1 0.1-1.2-1.7 0-1.7 2.9-0.1 5.5-1.3 7.3-3.1 4-4.1 3.7-10.4-0.5-14.1-2.8-2.5-6.8-3.3-10.4-2.3q-1.3 0.4-2.5 1.1-0.2 0.2-0.4 0.3c0 0-0.9 0.1-1.1-0.2l-1.3-1.3-1 6.2h6.8q-0.9-1.2-1.8-2.4c0 0-0.1 0-0.1-0.1-0.2-0.3-0.1-0.8 0.3-1.1l0.2-0.1c3.2-1.6 7.4-1 10 1.3 3.5 3 3.7 8.1 0.5 11.3-1.6 1.5-3.7 2.5-6.1 2.6zm-3.5-4.9h-4.2v1.3c0 0.7 0.6 1.3 1.4 1.3h1.4c0.8 0 1.4-0.6 1.4-1.3v-1.3z"/></svg>