<svg version="1.2" xmlns="http://www.w3.org/2000/svg" viewBox="0 0 32 28" width="32" height="28"><style>.a{fill:#0699bc}</style><path fill-rule="evenodd" class="a" d="m31 28.1h-11.5l5.1-13.6h6.4c0.6 0 1 0.4 1 1v11.6c0 0.5-0.4 1-1 1zm-1.7-10.5h-4.9v1.4h3.2l-2.4 6h1.5l2.6-6.2zm-12.2-9.9l3.3-0.3q-0.8-1.1-1.8-2c-3.9-3.4-9.8-3-13.2 0.9-2.8 3-3.1 7.4-1 10.7v4.6q-0.1 0-0.2-0.1c-5.1-4.4-5.7-12.1-1.2-17.2 4.5-5.1 12.4-5.6 17.6-1.2q1.7 1.5 2.7 3.3l2.8-2.1-2.2 8.8zm-13 4.6v-0.5c0-0.3 0.2-0.5 0.5-0.5h1.4c0.2 0 0.5 0.2 0.5 0.5v0.5c0 0.3-0.3 0.5-0.5 0.5h-1.4c-0.3 0-0.5-0.2-0.5-0.5zm8.2-6c-0.3 0-0.5-0.2-0.5-0.5v-1.4c0-0.3 0.2-0.5 0.5-0.5h0.6c0.2 0 0.5 0.2 0.5 0.5v1.4c0 0.3-0.3 0.5-0.5 0.5zm4.1 1.9l0.6 0.7c0.1 0.1 0.1 0.3-0.1 0.4l-3.2 2.8c0.1 0.3 0 0.6-0.3 0.9-0.4 0.5-1.2 0.5-1.7 0.1-0.4-0.3-0.5-0.7-0.5-1.1l-4.5-3.5c-0.2-0.1-0.2-0.3-0.1-0.4l0.6-0.7c0.1-0.1 0.2-0.1 0.4 0l4.6 3.6q0.3-0.1 0.6 0l3.2-2.8c0.1-0.1 0.3-0.1 0.4 0zm-10.2 6.3h17.2l-5.1 13.5h-12.1c-0.5 0-0.9-0.4-0.9-0.9v-11.7c0-0.5 0.4-0.9 0.9-0.9zm6.5 9.3h3.5v1.2h1.5v-1.2h0.8v-1.4h-0.8v-1.7h-1.5v1.7h-1.9l2.4-4.7h-1.5l-2.5 4.7zm-2.8-2.4l-2.6 2.6v1.1h5v-1.4h-2.8l1.5-1.5q1.2-1.2 1.2-2.3 0-1.1-0.7-1.7-0.8-0.6-1.8-0.6-0.8 0-1.4 0.4-0.7 0.4-1 1.1l1.2 0.7q0.4-0.8 1.2-0.8 0.5 0 0.7 0.2 0.3 0.3 0.3 0.7 0 0.6-0.8 1.5z"/></svg>