<svg xmlns="http://www.w3.org/2000/svg" xmlns:xlink="http://www.w3.org/1999/xlink" xml:space="preserve" version="1.1" style="shape-rendering:geometricPrecision; text-rendering:geometricPrecision; image-rendering:optimizeQuality; fill-rule:evenodd; clip-rule:evenodd" viewBox="173 76 468 468">
 <defs>
  <style type="text/css">
   <![CDATA[
    .fil0 {fill:#FEFEFE}
    .fil1 {fill:#179ABD;fill-rule:nonzero}
    .fil2 {fill:#2B2A29;fill-rule:nonzero}
   ]]>
  </style>
 </defs>
 <g id="Слой_x0020_1">
  <metadata id="CorelCorpID_0Corel-Layer"/>
  <circle class="fil0" cx="407" cy="310" r="234"/>
  <path class="fil1" d="M370 408l-2 12 13 0 -7 34 15 0 6 -31 -5 -2 6 0 13 0 2 -12 -42 0zm-46 0l-18 0 -10 12 -10 0 2 -12 -19 0 -9 46 18 0 4 -17 0 0 -4 -2 4 0 0 0 1 0 0 0 10 0 6 19 12 0 7 0 9 0 3 -6 -4 -2 6 0 17 0 2 8 15 0 -11 -46 -15 0 -24 38 -7 -20 15 -19zm15 27l7 -12 2 12 -9 0zm206 -27l-3 16 -14 0 3 -16 -15 0 -9 46 15 0 3 -14 -5 -3 6 0 0 0 14 0 -3 17 15 0 9 -46 -15 0zm-71 27l7 -12 2 12 -9 0zm17 -27l-15 0 -29 46 16 0 3 -6 -4 -2 5 0 17 0 2 8 15 0 -11 -46zm-52 21c-1,1 -3,2 -5,2l-6 0 2 -11 5 0c2,0 3,0 4,1 1,1 2,2 2,4 0,2 -1,3 -2,4zm12 -17c-3,-3 -8,-4 -14,-4l-20 0 -9 46 15 0 2 -9 -4 -2 4 0 8 0c5,0 9,-1 12,-2 3,-2 6,-4 8,-7 2,-3 3,-6 3,-10 0,-5 -2,-9 -5,-11z"/>
  <path class="fil2" d="M470 368c-3,0 -41,24 -49,28 24,-3 100,-12 101,-12 -1,0 -14,8 -19,12 14,-2 37,-5 57,-7 -13,-18 -27,-40 -36,-59 -8,-18 -11,-31 -11,-31l-44 -12 39 -15 -2 -24 -35 -7 35 -7c0,0 1,-8 2,-12 10,-52 47,-81 47,-81 0,0 -225,18 -283,250 76,-9 197,-22 199,-22z"/>
 </g>
</svg>