
<svg version="1.2" xmlns="http://www.w3.org/2000/svg" viewBox="0 0 183 33" width="183" height="33">
	<style>
		.s0 { fill: #0699bc } 
		.s1 { fill: #1d1d1b } 
	</style>
	<path fill-rule="evenodd" class="s0" d="m110.8 5.4l-1.2 5.9h-6.4-2.8l2.4 1.2-3 15.6h-7.4l3.2-16.8h-6.5l1.2-5.9zm19.2 2q2.4 1.9 2.4 5.5 0 2.9-1.4 5-1.4 2.2-3.9 3.4-2.5 1.2-6 1.2h-3.8-2.2l2 1.1-0.9 4.5h-7.6l4.5-22.7h9.9q4.5 0 7 2zm-6.1 8.4q0.9-0.8 0.9-2.2 0-1.2-0.8-1.8-0.7-0.5-2-0.5h-2.5l-1.1 5.3h3.1q1.6 0 2.4-0.8zm30.6 12.3h-7.5l-0.8-4h-8.5-2.6l2 1.1-1.6 2.9h-8l14.3-22.7h7.4zm-9.3-9.5l-1.1-5.8-3.3 5.8zm37.9-13.2l-4.5 22.7h-7.5l1.6-8.4h-6.9-0.1-2.8l2.6 1.4-1.4 7h-7.5l4.4-22.7h7.6l-1.6 8.1h6.9l1.6-8.1zm-94.1 22.7h-7.5l-0.8-4h-8.4l-2.8 0.1 2.1 1-1.6 2.9h-13.7l-2.8-9.5h-5.4-2.1l1.9 0.9-0.1 0.2-1.9 8.4h-8.8l4.5-22.7h9.3l-1.2 6.1h4.7l4.9-6.1h8.9l-7.2 9.3 3.3 9.7 12-19h7.4zm-9.3-9.4l-1.1-5.8-3.3 5.8z"/>
	<path class="s1" d="m27.4 29.5c-0.5 0-5.2 3-6.4 3.5 3.3-0.2 13-1.5 13.2-1.5-0.2 0-2.1 0.9-2.9 1.2 1.9-0.1 5.3-0.4 8.3-0.6-1.4-2.1-2.8-4.8-3.4-7.1-0.7-2.2-0.2-4.8-0.2-4.8l-6.7-0.4 6.7-1.6 0.8-4.4-5.1-0.8 5.4-1c0 0 0.4-1.1 0.6-1.6 3.2-7 9.2-10.4 9.2-10.4 0 0-35.8 4.7-46.9 32 9.7-0.7 27.1-2.5 27.4-2.5"/>
</svg>