<svg version="1.2" xmlns="http://www.w3.org/2000/svg" viewBox="0 0 233 65" width="233" height="65"><style>.a{fill:#0699bc}.b{fill:#242424}</style><path fill-rule="evenodd" class="a" d="m153.2 20.5l-1.3 6.8h-7.1-3.1l2.6 1.4-3.3 17.8h-8.2l3.6-19.2h-7.1l1.2-6.8zm21.2 2.3q2.7 2.3 2.7 6.3 0 3.3-1.5 5.8-1.5 2.5-4.3 3.9-2.8 1.3-6.7 1.3l-4.2 0.1h-2.4l2.2 1.1-1 5.2h-8.3l4.9-26h11q4.9 0 7.6 2.3zm-6.6 9.7q0.9-0.9 0.9-2.6 0-1.4-0.8-2-0.9-0.6-2.3-0.6h-2.8l-1.1 6.1h3.4q1.7 0 2.7-0.9zm33.7 14h-8.3l-0.8-4.5h-9.4-2.9l2.2 1.2-1.8 3.3h-8.8l15.8-26h8.1zm-10.2-10.8l-1.2-6.6-3.6 6.6zm41.8-15.1l-5 25.9h-8.3l1.8-9.5h-7.7-3l2.8 1.5-1.6 8h-8.3l4.9-25.9h8.4l-1.8 9.2h7.7l1.8-9.2zm-104.1 25.9h-8.3l-0.8-4.5h-9.3-3.1l2.3 1.2-1.8 3.3h-8.8-6.3l-3.1-10.9h-6-2.2l2 1.1-0.1 0.2-2.1 9.6h-9.7l5-25.9h10.2l-1.3 7h5.2l5.4-7h9.9l-8 10.6 3.7 11.1 13.1-21.7h8.2zm-10.2-10.9l-1.2-6.6-3.6 6.6z"/><path class="b" d="m50.9 57.8c-0.9 0.1-10.6 6-12.6 7.2 6.1-0.8 25.5-3.1 25.8-3.1-0.3 0-3.5 2.1-4.8 2.9 3.6-0.4 9.5-1.1 14.7-1.7-3.4-4.5-6.9-10.2-9.1-15.1-2.1-4.6-2.9-7.9-2.9-7.9l-11.3-3 9.9-3.7-0.5-6.2-9.1-1.8 8.9-1.7c0 0 0.2-2.1 0.4-3.2 2.7-13.1 12.1-20.5 12.1-20.5 0 0-57.5 4.6-72.4 63.5 19.4-2.2 50.4-5.7 50.9-5.7"/></svg>