<svg xmlns="http://www.w3.org/2000/svg" xmlns:xlink="http://www.w3.org/1999/xlink" version="1.1" id="Слой_1" x="0px" y="0px" style="enable-background:new 0 0 1150.43 264.72;" xml:space="preserve" viewBox="84.5 76.57 979.41 146.79">
<style type="text/css">
	.st0{fill:#FFED00;}
</style>
<g>
	<g>
		<path d="M198.77,207.1c-1.99,0.17-23.8,13.48-28.32,16.26c13.79-1.68,57.31-6.96,57.91-6.99c-0.73,0.07-7.8,4.7-10.74,6.64    c7.95-0.97,21.32-2.59,32.89-3.99c-7.5-10.08-15.53-23.06-20.38-33.94c-4.71-10.56-6.42-17.98-6.42-17.98l-25.36-6.63l22.14-8.39    l-1.18-14.03l-20.36-4.01l20-3.98c0,0,0.49-4.72,0.97-7.12c5.97-29.57,27.13-46.37,27.13-46.37S118.03,87.01,84.5,219.96    C128.1,215.02,197.61,207.16,198.77,207.1z"/>
	</g>
</g>
<path class="st0" d="M967.42,108.44H949.7l-9.66,44.89c-1.36,6.34-3.46,10.83-6.29,13.48c-2.83,2.65-6.22,3.98-10.18,3.98  c-3.88,0-6.68-1.32-8.41-3.98c-1.73-2.65-1.91-7.14-0.54-13.48l8.66-40.23l-9.09-4.67h-17.93l-9.84,45.73  c-2.68,12.43-1.19,22.09,4.45,28.98s14.84,10.33,27.59,10.33c12.75,0,23.43-3.44,32.03-10.33s14.25-16.55,16.93-28.98l8.86-41.18  L967.42,108.44z"/>
<path class="st0" d="M1057.52,141.4c3.04-3.29,5.02-7.03,5.92-11.22c1.36-6.33-0.25-11.54-4.83-15.62s-12.62-6.12-24.1-6.12h-44.42  l-17.89,83.14h46.79c11.48,0,20.64-2.02,27.49-6.06c6.85-4.04,11.05-9.66,12.6-16.87c1.04-4.83,0.64-8.97-1.19-12.41  c-1.83-3.44-4.91-6.08-9.23-7.9c-0.18-0.08-0.38-0.14-0.56-0.22C1051.85,146.36,1055,144.12,1057.52,141.4z M1031.5,165.45  c-0.46,2.14-1.58,3.76-3.36,4.87c-1.78,1.11-4.22,1.66-7.31,1.66h-16.87l2.01-9.32l-7.34-3.76l10.28,0.01l0.19-0.01l0,0.02h14.54  c3.09,0,5.28,0.55,6.59,1.66S1031.96,163.31,1031.5,165.45z M1034.3,134.21c-0.43,1.98-1.49,3.5-3.18,4.57  c-1.7,1.07-4.13,1.6-7.29,1.6h-13.06l1.67-7.77l-8.91-4.57l9.89,0.01l0-0.02h13.06c3.17,0,5.37,0.52,6.62,1.54  C1034.34,130.61,1034.74,132.16,1034.3,134.21z"/>
<path class="st0" d="M871.19,147.4c-2.34-1.82-5.02-3.28-8.02-4.39c-3.01-1.11-6.09-1.98-9.24-2.61c-3.15-0.63-6.03-1.23-8.64-1.78  c-2.61-0.55-4.66-1.25-6.14-2.08c-1.48-0.83-2.07-1.96-1.77-3.38c0.21-0.95,0.73-1.82,1.57-2.61c0.84-0.79,2.11-1.42,3.79-1.9  c1.68-0.47,3.87-0.71,6.57-0.71c3.64,0,7.27,0.52,10.89,1.54c3.62,1.03,7.26,2.57,10.94,4.63l10.67-16.93l-7.61-3.9l8.88,0.01  c-3.64-2.19-7.87-3.84-12.7-4.95c-5.21-1.19-10.62-1.78-16.24-1.78c-8.55,0-15.97,1.27-22.26,3.8c-6.29,2.54-11.33,5.92-15.13,10.16  c-3.8,4.24-6.26,8.93-7.36,14.07c-0.95,4.44-0.92,8.14,0.1,11.1c1.02,2.97,2.71,5.37,5.05,7.19c2.34,1.82,5.03,3.29,8.08,4.39  c3.05,1.11,6.12,2,9.22,2.67c3.1,0.67,5.96,1.31,8.56,1.9c2.6,0.59,4.64,1.33,6.12,2.2c1.47,0.87,2.05,2.06,1.73,3.56  c-0.2,0.95-0.73,1.76-1.59,2.43c-0.86,0.67-2.1,1.19-3.72,1.54c-1.62,0.36-3.78,0.53-6.47,0.53c-4.59,0-9.17-0.69-13.75-2.08  c-4.57-1.38-8.59-3.22-12.05-5.52l-13.42,20.43c3.65,2.54,8.55,4.59,14.71,6.18c6.15,1.58,12.71,2.38,19.68,2.38  c8.63,0,16.07-1.29,22.33-3.86c6.25-2.57,11.28-5.98,15.08-10.21c3.8-4.23,6.25-8.89,7.34-13.96c0.94-4.35,0.89-8-0.14-10.93  C875.21,151.6,873.53,149.22,871.19,147.4z"/>
<g>
	<g>
		<polygon points="516.99,129.94 521.3,108.03 444.43,108.03 440.12,129.94 464.31,129.94 452.22,191.84 479.99,191.84     491.22,134.38 482.48,129.9 492.81,129.94   "/>
	</g>
	<g>
		<path d="M597.27,154.36c3.47-5.35,5.21-11.53,5.21-18.56c0-8.78-3.05-15.6-9.16-20.48c-6.11-4.87-14.79-7.3-26.04-7.3h-37.24    l-16.76,83.81h28.26l3.34-16.7l-7.41-3.8l8.17,0l7.28-0.05l6.87,20.54h28.16l-8-23.92c0.89-0.34,1.76-0.71,2.61-1.1    C588.89,163.86,593.8,159.71,597.27,154.36z M553.87,129.82h9.45c3.27,0,5.85,0.66,7.72,1.98c1.88,1.32,2.81,3.49,2.81,6.53    c0,3.51-1.08,6.25-3.23,8.2c-2.15,1.96-5.19,2.93-9.1,2.93h-11.57L553.87,129.82z"/>
	</g>
	<g>
		<path d="M648.01,108.03l-53.4,83.81h29.81l6.18-10.78l-7.47-3.83l9.67,0l31.94,0l2.79,14.61h28.14l-19.88-83.81H648.01z     M644.48,156.88l12.27-21.4l4.09,21.4H644.48z"/>
	</g>
	<g>
		<path d="M391.31,108.03l-44.71,70.17l-12.35-35.87l26.92-34.31h-33.55l-18.15,22.63h-17.71l4.28-22.63c0,0-24.33,0-34.74,0    l-16.8,83.81h32.89l7.31-31.11l0.14-0.6l-6.88-3.54h7.71l0-0.01h1.68l0.02,0v0h18.49l10.6,35.26h21.45h13.39h16.43l6.13-10.69    l-7.73-3.85l10.34-0.07h31.57l2.79,14.61h28.14l-19.88-83.81H391.31z M387.78,156.88l12.27-21.4l4.09,21.4H387.78z"/>
	</g>
	<g>
		<polygon points="774.57,108.03 768.63,137.72 766.27,149.52 746.86,108.03 718.61,108.03 712.67,137.72 708.03,160.95     708.03,160.95 706.94,166.36 706.37,169.23 701.85,191.84 730.1,191.84 737.77,153.52 729.38,150.32 738.34,150.32 738.39,150.42     738.4,150.35 743.36,160.95 743.36,160.95 745.89,166.36 747.23,169.23 757.81,191.84 786.06,191.84 802.83,108.03   "/>
	</g>
</g>
</svg>