<svg xmlns="http://www.w3.org/2000/svg">
  <symbol id="hamburger" viewBox="0 0 18 15">
    <path fill="currentColor" d="m1.5 0h15c0.8 0 1.5 0.7 1.5 1.5 0 0.8-0.7 1.5-1.5 1.5h-15c-0.8 0-1.5-0.7-1.5-1.5 0-0.8 0.7-1.5 1.5-1.5zm0 6h15c0.8 0 1.5 0.7 1.5 1.5 0 0.8-0.7 1.5-1.5 1.5h-15c-0.8 0-1.5-0.7-1.5-1.5 0-0.8 0.7-1.5 1.5-1.5zm0 6h15c0.8 0 1.5 0.7 1.5 1.5 0 0.8-0.7 1.5-1.5 1.5h-15c-0.8 0-1.5-0.7-1.5-1.5 0-0.8 0.7-1.5 1.5-1.5z"/>
  </symbol>

  <symbol id="cart" viewBox="0 0 10 10">
    <g clip-rule="evenodd" fill-rule="evenodd" fill="currentColor" image-rendering="optimizeQuality" shape-rendering="geometricPrecision" text-rendering="geometricPrecision">
      <path d="M.95 3.746a.597.597 0 0 0-.6.6v.401c0 .33.27.6.6.6h.166c-.007.3-.027.563-.027.876v1.176c0 .97.512 1.751 1.482 1.751h4.82c.97 0 1.765-.794 1.765-1.763V6.21c0-.313.004-.558-.021-.845h.027c.33 0 .556-.288.556-.619v-.4c0-.33-.27-.6-.6-.6h-.759l.061.11.001.001.004.006a.824.824 0 0 1-.28 1.097l-.006.006-.04.021a.827.827 0 0 1-1.126-.323l-.506-.908c-1.75.016-1.9.046-2.858.04l-.475.852a.829.829 0 0 1-1.127.324l-.04-.022-.005-.005a.826.826 0 0 1-.28-1.098l.004-.006v-.001l.044-.077a460.26 460.26 0 0 1-.78-.018zM4.274.905a.53.53 0 0 1 .206.719L2.94 4.388a.53.53 0 1 1-.927-.512l1.54-2.765a.533.533 0 0 1 .72-.206zm1.56.015a.53.53 0 0 0-.206.72l1.539 2.763a.53.53 0 0 0 .927-.512L6.555 1.127A.533.533 0 0 0 5.834.92zM2.982 5.475c.248 0 .45.203.45.45V7.84c0 .248-.202.45-.45.45a.452.452 0 0 1-.45-.45V5.926c0-.248.202-.45.45-.45zm4.31 0c.247 0 .45.203.45.45V7.84c0 .248-.203.45-.45.45a.451.451 0 0 1-.451-.45V5.926c0-.248.203-.45.45-.45zm-2.183 0c.247 0 .45.203.45.45V7.84c0 .248-.203.45-.45.45a.452.452 0 0 1-.45-.45V5.926c0-.248.202-.45.45-.45z" class="fil0"/><path class="fil1" d="M81.335-161.758v-.002M81.336-161.76l.001-.003M81.226-162.172h-.002M81.224-162.172l-.003-.002"/>
    </g>
  </symbol>

  <symbol id="user" viewBox="0 0 19 20">
    <path fill="currentColor" d="m3.3 15.9c1.9-1 2.5-2.8 2.5-2.8v-2.1c0 0-1.6-2.1-1.6-3.2 0-4.7 1.6-6.3 1.6-6.3 1.6-2 4.6-2 6.2 0 0 0 1.6 1.6 1.6 6.3 0 1.1-1.6 3.2-1.6 3.2v2.1c0 0 0.7 1.9 2.8 3-1.3-0.7 11.6 3.2-5.9 3.2-16.2 0-5.3-3.6-5.6-3.4z"/>
  </symbol>

  <symbol id="favorite" viewBox="0 0 20 17">
    <path fill="currentColor" d="m14.8 0.3c-4.3-0.1-4.9 2.2-4.9 2.2-0.9-2.1-2.3-2.2-4.8-2.2-2.7 0-4.8 2-4.8 4.6q0 0.6 0.2 1.2c1 4.5 9.4 10.1 9.5 10.1 0 0 9.7-6.5 9.6-11q0-0.2 0-0.3c0-2.6-2.1-4.6-4.8-4.6z"/>
  </symbol>

  <symbol id="comparison" viewBox="0 0 17 16">
    <path fill="currentColor" d="m15 0.4h1.4c0.3 0 0.5 0.3 0.5 0.5v13.8c0 0.3-0.2 0.5-0.5 0.5h-1.4c-0.2 0-0.5-0.2-0.5-0.5v-13.8c0-0.2 0.3-0.5 0.5-0.5zm-4.4 3.3h1.4c0.2 0 0.5 0.2 0.5 0.5v10.5c0 0.3-0.3 0.5-0.5 0.5h-1.4c-0.3 0-0.5-0.2-0.5-0.5v-10.5c0-0.3 0.2-0.5 0.5-0.5zm-4.7-3.3h1.4c0.3 0 0.5 0.3 0.5 0.5v13.8c0 0.3-0.2 0.5-0.5 0.5h-1.4c-0.2 0-0.5-0.2-0.5-0.5v-13.8c0-0.2 0.3-0.5 0.5-0.5zm-4.4 3.3h1.4c0.3 0 0.5 0.2 0.5 0.5v10.5c0 0.3-0.2 0.5-0.5 0.5h-1.4c-0.3 0-0.5-0.2-0.5-0.5v-10.5c0-0.3 0.2-0.5 0.5-0.5z"/>
  </symbol>

  <symbol id="loupe" viewBox="0 0 23 24">
    <path fill-rule="evenodd" stroke="currentColor" stroke-width="2px" stroke-linecap="butt" stroke-linejoin="miter" fill="transparent" d="M19.999,20.999 C19.151,21.707 18.765,21.537 16.464,18.781 C15.781,17.964 15.300,17.272 14.984,16.686 C14.892,16.517 14.800,16.358 14.709,16.206 C13.269,17.326 11.465,17.999 9.499,17.999 C4.805,17.999 0.999,14.194 0.999,9.499 C0.999,4.805 4.805,0.999 9.499,0.999 C14.194,0.999 17.999,4.805 17.999,9.499 C17.999,11.720 17.141,13.734 15.748,15.248 C16.627,15.655 17.757,16.286 18.535,17.218 C20.835,19.974 20.847,20.292 19.999,20.999 Z"></path>
  </symbol>
</svg>
