<svg version="1.2" xmlns="http://www.w3.org/2000/svg" viewBox="0 0 81 58" width="81" height="58"><style></style><path fill-rule="evenodd" d="m79.6 27.6c-0.7 0-1.2-0.5-1.2-1.1v-16.5c0-1.1-0.9-2.1-2.1-2.1-1.2 0-2.1 1-2.1 2.1 0 4.4 0 24.2 0 26.1 0 1.1 0.9 2.1 2.1 2.1 1.2 0 2.1-1 2.1-2.1v-4c0-0.6 0.5-1.2 1.2-1.2 0.6 0 1.2 0.6 1.2 1.2v4c0 2.4-2 4.4-4.5 4.4-2.2 0-4-1.5-4.4-3.6h-4.5c-0.7 2.2-2.8 3.7-5.2 3.6 0.5 3.7-2.8 6.6-6.3 5.7-0.3 3.2-3.4 5.5-6.6 4.6-0.3 4.3-5.3 6.3-8.5 3.6l-2.5 2.3c-3.4 3.1-9 0.2-8.3-4.5-3.1 0.1-5.6-2.6-5.1-5.7-3.2 0.1-5.6-2.6-5.2-5.7-2.4 0-4.5-1.6-5-3.9h-5.3c-0.4 2.1-2.2 3.6-4.4 3.6-2.4 0-4.4-2-4.4-4.4v-16.5c0-0.6 0.5-1.2 1.1-1.2 0.7 0 1.2 0.6 1.2 1.2v16.5c0 1.1 1 2.1 2.1 2.1 1.2 0 2.2-1 2.2-2.1 0-3.4 0-24.9 0-26.1 0-1.1-1-2.1-2.2-2.1-1.1 0-2.1 1-2.1 2.1v3.7c0 0.7-0.5 1.2-1.2 1.2-0.6 0-1.1-0.5-1.1-1.2v-3.7c0-2.4 2-4.5 4.4-4.5 2.2 0 4.1 1.7 4.4 3.8 10.1-0.1 10.1 0.2 11-0.3 1.6-0.7 6-5.4 9.8-7.2 1.4-0.6 3.5-0.5 6.5 0.4 4.9-2.3 9.8-1.8 13.3 0.9 0.5 0.4 0.6 1.2 0.2 1.7-0.4 0.5-1.1 0.6-1.7 0.2-3.3-2.6-7.5-2.3-11.1-0.5-0.1 0.1-2.9 1.3-6.3 5-0.1 0.1-0.1 0.1 0 0-0.2 0.2-1 1-4.4 4.7-1.3 1.5-0.3 3.9 2.3 4 0.8 0 1.7-0.3 2.4-0.9l5.9-5.4c1-0.9 2.9-0.7 3.6 0.2 0.1 0 4.2 4.4 11.4 4.6 0.6 0-0.5-1.2 13.9 15.1 0.7 0.7 1.2 1.7 1.4 2.7h4.2v-22.9h-11.6c-1.6 0-2.8-0.6-7.1-3.4-0.5-0.3-0.7-1-0.3-1.6 0.4-0.5 1.1-0.7 1.6-0.3 1.9 1.2 3.7 2.2 4.6 2.7 1 0.5 0.7 0.2 12.9 0.3 0.3-2.1 2.2-3.8 4.4-3.8 2.5 0 4.5 2.1 4.5 4.5v16.5c0 0.6-0.6 1.1-1.2 1.1zm-62.6 7.4c-0.8 2.6 2.4 4.5 4.3 2.7l3.1-2.8c2.1-2 0.2-5.3-2.4-4.5-0.9 0.2-1.1 0.6-4.2 3.3-0.4 0.4-0.6 0.8-0.8 1.3zm5.7 8.3c1 1.1 2.7 1.1 3.8 0.2 3.2-3 3.1-2.8 3.3-3 1-1.2 0.8-2.7 0-3.6-1-1.1-2.7-1.2-3.8-0.2-3.5 3.2-3 2.7-3.1 2.8-1.1 1-1.2 2.7-0.2 3.8zm5.1 5.7c1 1.1 2.7 1.2 3.8 0.2l3.1-2.8c1.1-1 1.2-2.7 0.2-3.8-0.6-0.6-1.5-1-2.4-0.8-1 0.1-1.2 0.5-4.5 3.4-1 1-1.1 2.7-0.2 3.8zm12.2 3c1-1.1 0.9-2.6 0-3.6-1-1.2-2.4-0.9-2.4-0.9-1 0.2-1.3 0.6-4.4 3.4-1.1 1-1.2 2.7-0.2 3.8 1 1.1 2.7 1.2 3.7 0.2 3.3-2.9 3.1-2.7 3.3-2.9zm20.8-14.3c1.8 1.2 4.3 0.1 4.5-2.1 0 0-0.2-1.4-0.6-2-0.1-0.2 0.9 1-13-14.6-5.1-0.2-9.8-2.5-12.4-5.3-0.2-0.1-0.3-0.1-0.5 0l-5.8 5.3c-1.1 1-2.4 1.6-3.9 1.6-4.7 0-6.8-5-4.1-8 2.8-2.8 5-6 8.8-8.7-1.6-0.2-2.3 0-2.6 0.1-3.6 1.7-7.7 6.2-9.7 7.2-1.8 0.8-2.5 0.3-12 0.4v22.9h5.2c0.2-0.8 0.6-1.6 1.2-2.2 0.3-0.3 0.2-0.2 3.4-3.1 2.1-1.9 5.2-1.7 7.1 0.4 1 1.1 1.4 2.5 1.2 4 3.1-0.1 5.6 2.7 5.2 5.8 3.1-0.1 5.5 2.6 5.1 5.7 3.9-0.1 6.5 4.2 4.5 7.6 1.1 0.8 2.6 0.8 3.7-0.2 1-1 1.2-2.5 0.4-3.7-0.4-0.5-0.3-1.2 0.2-1.6 0.5-0.4 1.2-0.3 1.6 0.1l0.3 0.3c1 1.2 2.8 1.3 3.9 0.3 1-0.8 1.3-2.1 0.8-3.3-0.5-1.2 0.9-2.2 1.9-1.3 1 1 2.7 1 3.8 0 1.1-1.1 1.2-2.8 0.3-3.9-0.9-1.1 0.4-2.5 1.5-1.7zm4.5-2.1q0 0 0 0 0 0 0 0z"/></svg>