<svg version="1.2" xmlns="http://www.w3.org/2000/svg" viewBox="0 0 71 81" width="71" height="81"><style></style><path fill-rule="evenodd" d="m21.8 65.9c3 0 5.4 2.4 5.4 5.4 0 2.9-2.4 5.3-5.4 5.3-3 0-5.4-2.4-5.4-5.3 0-3 2.4-5.4 5.4-5.4zm0 8.1c1.5 0 2.7-1.2 2.7-2.7 0-1.5-1.2-2.7-2.7-2.7-1.5 0-2.7 1.2-2.7 2.7 0 1.5 1.2 2.7 2.7 2.7zm-4-67.3c-0.8 0-1.4-0.6-1.4-1.3 0-0.8 0.6-1.4 1.4-1.4h5.3c0.8 0 1.4 0.6 1.4 1.4 0 0.7-0.6 1.3-1.4 1.3zm9.4 0c-0.7 0-1.3-0.6-1.3-1.3 0-0.8 0.6-1.4 1.3-1.4h1.4c0.7 0 1.3 0.6 1.3 1.4 0 0.7-0.6 1.3-1.3 1.3zm42.9 9.4v28.3h-24.1v30.4c0 3.2-2.7 5.9-5.9 5.9h-33.8c-3.3 0-6-2.7-6-5.9v-68.9c0-3.2 2.7-5.9 6-5.9h33.8c3.2 0 5.9 2.7 5.9 5.9v10.2zm-63.9-13.4c-1.8 0-3.2 1.5-3.2 3.2v2.2h40.2v-2.2c0-1.7-1.4-3.2-3.2-3.2zm33.8 75.3c1.8 0 3.2-1.5 3.2-3.2v-10.3h-40.2v10.3c0 1.7 1.4 3.2 3.2 3.2zm3.2-16.1v-17.5h-6.2l-12.6 9.4v-9.4h-5.3v-28.3h24.1v-5.3h-40.2v51.1zm24.1-20.2v-22.9h-45.6v22.9h5.4v6.7l8.9-6.7zm-38.9-13.5c-0.7 0-1.3-0.6-1.3-1.3 0-0.7 0.6-1.3 1.3-1.3h13.4c0.8 0 1.4 0.6 1.4 1.3 0 0.7-0.6 1.3-1.4 1.3zm-1.3 5.4c0-0.7 0.6-1.3 1.3-1.3h32.2c0.8 0 1.4 0.6 1.4 1.3 0 0.8-0.6 1.4-1.4 1.4h-32.2c-0.7 0-1.3-0.6-1.3-1.4z"/></svg>