<svg version="1.2" xmlns="http://www.w3.org/2000/svg" viewBox="0 0 82 82" width="82" height="82"><style>.a{fill:#fff;stroke:#000;stroke-linejoin:round;stroke-width:3}</style><path fill-rule="evenodd" class="a" d="m1.2 34.8c1.9-15.3 9.1-19.9 11-20.1 1.8-0.2 3.6-0.9 7 2.5 3.4 3.4 7.2 7 8.5 8.5 1.2 1.6 1.9 5.8 0.7 7.3-1.3 1.6-5.4 5.2-6.8 6.6-1.3 1.3-1.2 3-0.7 4 1.8 3.7 13.6 15.6 17.3 17.5 1 0.5 2.6 0.6 4-0.7 1.4-1.4 5.1-5.4 6.7-6.7 1.5-1.2 5.7-0.5 7.3 0.8 1.5 1.3 5 5.1 8.3 8.6 3.4 3.4 2.7 5.2 2.5 7-0.2 1.9-4.9 9-20.2 10.8-18.9 2.2-48-27.4-45.6-46.1zm56.4 13c-3.4 0-6.7-0.7-9.6-2.1q-0.5-0.2-0.9-0.4c-0.7-0.3-2.5 1.4-5 2-2.9 0.8-6.6 0.7-7.3 0.1-0.7-0.5 2.1-2.2 3.8-4.1 1.2-1.4 1.7-3.1 1.3-3.6q-0.3-0.3-0.5-0.6c-3.3-4-5.2-9.1-5.2-14.7 0-12.9 10.4-23.4 23.4-23.4 12.9 0 23.4 10.5 23.4 23.4 0 12.9-10.5 23.4-23.4 23.4zm-2.8-16v6.4c0 0.1 0.1 0.2 0.2 0.2h5.1c0.1 0 0.2-0.1 0.2-0.2v-6.5c0-1 1.5-1.7 2.3-1.3l5.5 3.3c0.1 0 0.3 0 0.3-0.1l2.6-4.4c0-0.1 0-0.2-0.1-0.3l-5.6-3.2c-0.9-0.5-0.8-2.1 0-2.6l5.6-3.2c0.1-0.1 0.1-0.2 0-0.3l-2.5-4.4c0-0.1-0.2-0.1-0.3 0l-5.6 3.2c-0.9 0.5-2.2-0.6-2.2-1.5v-6.3c0-0.1-0.1-0.2-0.2-0.2h-5.1c-0.1 0-0.2 0.1-0.2 0.2v6.3c0 1-1.6 1.9-2.4 1.4l-5.4-3.1c-0.1-0.1-0.2-0.1-0.3 0l-2.5 4.4c-0.1 0.1 0 0.2 0.1 0.3l5.4 3.1c0.9 0.5 0.8 2.3 0 2.8l-5.4 3.1c-0.1 0.1-0.2 0.2-0.1 0.3l2.5 4.4c0.1 0.1 0.2 0.1 0.3 0.1l5.5-3.2c0.8-0.5 2.3 0.2 2.3 1.3z"/></svg>